<mxfile host="app.diagrams.net" modified="2021-08-04T05:04:57.836Z" agent="5.0 (Windows NT 10.0; Win64; x64) AppleWebKit/537.36 (KHTML, like Gecko) Chrome/92.0.4515.107 Safari/537.36 Edg/92.0.902.62" etag="XrvvMTTvSFUsmAvMgbPm" version="14.9.4" type="github">
  <diagram id="5X5Ll2jkALBPJpd6aMPX" name="Page-1">
    <mxGraphModel dx="948" dy="575" grid="1" gridSize="10" guides="1" tooltips="1" connect="1" arrows="1" fold="1" page="1" pageScale="1" pageWidth="850" pageHeight="1100" math="0" shadow="0">
      <root>
        <mxCell id="0" />
        <mxCell id="1" parent="0" />
        <mxCell id="A0uaT3lhPn4yO8wcqpxa-2" value="" style="rounded=0;whiteSpace=wrap;html=1;" vertex="1" parent="1">
          <mxGeometry x="40" y="40" width="240" height="340" as="geometry" />
        </mxCell>
        <mxCell id="A0uaT3lhPn4yO8wcqpxa-3" value="" style="verticalLabelPosition=bottom;html=1;verticalAlign=top;align=center;strokeColor=none;fillColor=#00BEF2;shape=mxgraph.azure.laptop;pointerEvents=1;" vertex="1" parent="1">
          <mxGeometry x="100" y="60" width="50" height="30" as="geometry" />
        </mxCell>
        <mxCell id="A0uaT3lhPn4yO8wcqpxa-4" value="" style="aspect=fixed;html=1;points=[];align=center;image;fontSize=12;image=img/lib/azure2/general/Help_and_Support.svg;" vertex="1" parent="1">
          <mxGeometry x="60" y="60" width="24.35" height="30" as="geometry" />
        </mxCell>
        <mxCell id="A0uaT3lhPn4yO8wcqpxa-7" value="KBC Employee" style="text;html=1;strokeColor=none;fillColor=none;align=center;verticalAlign=middle;whiteSpace=wrap;rounded=0;" vertex="1" parent="1">
          <mxGeometry x="50" y="90" width="110" height="20" as="geometry" />
        </mxCell>
        <mxCell id="A0uaT3lhPn4yO8wcqpxa-8" value="OnPrem apps" style="swimlane;" vertex="1" parent="1">
          <mxGeometry x="60" y="260" width="100" height="40" as="geometry" />
        </mxCell>
        <mxCell id="A0uaT3lhPn4yO8wcqpxa-9" value="" style="html=1;dashed=0;whitespace=wrap;fillColor=#2875E2;strokeColor=#ffffff;points=[[0.005,0.63,0],[0.1,0.2,0],[0.9,0.2,0],[0.5,0,0],[0.995,0.63,0],[0.72,0.99,0],[0.5,1,0],[0.28,0.99,0]];shape=mxgraph.kubernetes.icon;prIcon=api" vertex="1" parent="1">
          <mxGeometry x="150" y="240" width="40" height="40" as="geometry" />
        </mxCell>
        <mxCell id="A0uaT3lhPn4yO8wcqpxa-10" value="KBC On Premises" style="text;html=1;strokeColor=none;fillColor=none;align=center;verticalAlign=middle;whiteSpace=wrap;rounded=0;" vertex="1" parent="1">
          <mxGeometry x="100" y="380" width="130" height="20" as="geometry" />
        </mxCell>
        <mxCell id="A0uaT3lhPn4yO8wcqpxa-12" value="" style="rounded=0;whiteSpace=wrap;html=1;fillColor=#fff2cc;dashed=1;strokeColor=#241E0E;" vertex="1" parent="1">
          <mxGeometry x="220" y="50" width="50" height="320" as="geometry" />
        </mxCell>
        <mxCell id="A0uaT3lhPn4yO8wcqpxa-13" value="DMZ" style="text;html=1;strokeColor=none;fillColor=none;align=center;verticalAlign=middle;whiteSpace=wrap;rounded=0;" vertex="1" parent="1">
          <mxGeometry x="225" y="190" width="40" height="20" as="geometry" />
        </mxCell>
        <mxCell id="A0uaT3lhPn4yO8wcqpxa-14" value="" style="rounded=0;whiteSpace=wrap;html=1;strokeColor=#241E0E;" vertex="1" parent="1">
          <mxGeometry x="290" y="40" width="150" height="340" as="geometry" />
        </mxCell>
        <mxCell id="A0uaT3lhPn4yO8wcqpxa-15" value="" style="verticalLabelPosition=bottom;html=1;verticalAlign=top;align=center;strokeColor=none;fillColor=#00BEF2;shape=mxgraph.azure.azure_subscription;" vertex="1" parent="1">
          <mxGeometry x="400" y="40" width="40" height="30" as="geometry" />
        </mxCell>
        <mxCell id="A0uaT3lhPn4yO8wcqpxa-16" value="Shared DMZ Subs/RG" style="text;html=1;strokeColor=none;fillColor=none;align=center;verticalAlign=middle;whiteSpace=wrap;rounded=0;" vertex="1" parent="1">
          <mxGeometry x="300" y="380" width="130" height="20" as="geometry" />
        </mxCell>
        <mxCell id="A0uaT3lhPn4yO8wcqpxa-18" value="" style="rounded=0;whiteSpace=wrap;html=1;strokeColor=#241E0E;dashed=1;" vertex="1" parent="1">
          <mxGeometry x="300" y="80" width="130" height="290" as="geometry" />
        </mxCell>
        <mxCell id="A0uaT3lhPn4yO8wcqpxa-17" value="" style="aspect=fixed;html=1;points=[];align=center;image;fontSize=12;image=img/lib/azure2/networking/Virtual_Networks_Classic.svg;strokeColor=#241E0E;" vertex="1" parent="1">
          <mxGeometry x="396.5" y="350" width="33.5" height="20" as="geometry" />
        </mxCell>
        <mxCell id="A0uaT3lhPn4yO8wcqpxa-19" value="" style="rounded=0;whiteSpace=wrap;html=1;dashed=1;strokeColor=#9933FF;dashPattern=1 1;" vertex="1" parent="1">
          <mxGeometry x="310" y="90" width="110" height="50" as="geometry" />
        </mxCell>
        <mxCell id="A0uaT3lhPn4yO8wcqpxa-20" value="" style="aspect=fixed;html=1;points=[];align=center;image;fontSize=12;image=img/lib/azure2/networking/Azure_Firewall_Manager.svg;dashed=1;dashPattern=1 1;strokeColor=#9933FF;" vertex="1" parent="1">
          <mxGeometry x="315" y="94" width="46.67" height="40" as="geometry" />
        </mxCell>
        <mxCell id="A0uaT3lhPn4yO8wcqpxa-21" value="Azure Firewall" style="text;html=1;strokeColor=none;fillColor=none;align=center;verticalAlign=middle;whiteSpace=wrap;rounded=0;dashed=1;dashPattern=1 1;" vertex="1" parent="1">
          <mxGeometry x="370" y="104" width="40" height="20" as="geometry" />
        </mxCell>
        <mxCell id="A0uaT3lhPn4yO8wcqpxa-23" value="" style="verticalLabelPosition=bottom;html=1;verticalAlign=top;align=center;strokeColor=none;fillColor=#00BEF2;shape=mxgraph.azure.virtual_network;pointerEvents=1;dashed=1;dashPattern=1 1;" vertex="1" parent="1">
          <mxGeometry x="400" y="130" width="20" height="10" as="geometry" />
        </mxCell>
        <mxCell id="A0uaT3lhPn4yO8wcqpxa-24" value="Subnet" style="text;html=1;strokeColor=none;fillColor=none;align=center;verticalAlign=middle;whiteSpace=wrap;rounded=0;" vertex="1" parent="1">
          <mxGeometry x="310" y="140" width="130" height="20" as="geometry" />
        </mxCell>
        <mxCell id="A0uaT3lhPn4yO8wcqpxa-25" value="" style="rounded=0;whiteSpace=wrap;html=1;dashed=1;strokeColor=#9933FF;dashPattern=1 1;" vertex="1" parent="1">
          <mxGeometry x="310" y="160" width="110" height="180" as="geometry" />
        </mxCell>
        <mxCell id="A0uaT3lhPn4yO8wcqpxa-26" value="&lt;font style=&quot;font-size: 8px&quot;&gt;&lt;b&gt;API GW&lt;/b&gt;&lt;/font&gt;" style="rounded=1;whiteSpace=wrap;html=1;dashed=1;dashPattern=1 1;strokeColor=#9933FF;" vertex="1" parent="1">
          <mxGeometry x="225" y="300" width="40" height="20" as="geometry" />
        </mxCell>
      </root>
    </mxGraphModel>
  </diagram>
</mxfile>
